<?xml version="1.0" encoding="UTF-8"?>
<svg width="80px" height="80px" viewBox="0 0 80 80" version="1.1" xmlns="http://www.w3.org/2000/svg" xmlns:xlink="http://www.w3.org/1999/xlink">
    <!-- Generator: Sketch 52.5 (67469) - http://www.bohemiancoding.com/sketch -->
    <title>GameGlyph</title>
    <desc>Created with Sketch.</desc>
    <g id="Page-1" stroke="none" stroke-width="1" fill="none" fill-rule="evenodd">
        <g id="GameGlyph" stroke="#FC4A2A">
            <path d="M8.9735982,2.5 C6.50615178,2.5 5.64476027,2.66634237 4.76003719,3.13949746 C4.05496763,3.51657278 3.51657278,4.05496763 3.13949746,4.76003719 C2.66634237,5.64476027 2.5,6.50615178 2.5,8.9735982 L2.5,71.0264018 C2.5,73.4938482 2.66634237,74.3552397 3.13949746,75.2399628 C3.51657278,75.9450324 4.05496763,76.4834272 4.76003719,76.8605025 C5.64476027,77.3336576 6.50615178,77.5 8.9735982,77.5 L71.0264018,77.5 C73.4938482,77.5 74.3552397,77.3336576 75.2399628,76.8605025 C75.9450324,76.4834272 76.4834272,75.9450324 76.8605025,75.2399628 C77.3336576,74.3552397 77.5,73.4938482 77.5,71.0264018 L77.5,8.9735982 C77.5,6.50615178 77.3336576,5.64476027 76.8605025,4.76003719 C76.4834272,4.05496763 75.9450324,3.51657278 75.2399628,3.13949746 C74.3552397,2.66634237 73.4938482,2.5 71.0264018,2.5 L8.9735982,2.5 Z" id="Rectangle" stroke-width="5"></path>
            <path d="M9.07637967,2.5 C7.42174987,2.5 6.91786847,2.59730399 6.40354956,2.87236475 C6.02440592,3.07513299 5.74179965,3.35773926 5.53903142,3.73688289 C5.26397065,4.25120181 5.16666667,4.75508321 5.16666667,6.409713 L5.16666667,73.590287 C5.16666667,75.2449168 5.26397065,75.7487982 5.53903142,76.2631171 C5.74179965,76.6422607 6.02440592,76.924867 6.40354956,77.1276352 C6.91786847,77.402696 7.42174987,77.5 9.07637967,77.5 L33.590287,77.5 C35.2449168,77.5 35.7487982,77.402696 36.2631171,77.1276352 C36.6422607,76.924867 36.924867,76.6422607 37.1276352,76.2631171 C37.402696,75.7487982 37.5,75.2449168 37.5,73.590287 L37.5,6.409713 C37.5,4.75508321 37.402696,4.25120181 37.1276352,3.73688289 C36.924867,3.35773926 36.6422607,3.07513299 36.2631171,2.87236475 C35.7487982,2.59730399 35.2449168,2.5 33.590287,2.5 L9.07637967,2.5 Z" id="Rectangle" stroke-width="5" fill="#FC4A2A"></path>
            <circle id="Oval" fill="#FC4A2A" cx="51.6666667" cy="49" r="5.83333333"></circle>
            <circle id="Oval" fill="#FC4A2A" cx="51.6666667" cy="31" r="5.83333333"></circle>
            <circle id="Oval" fill="#FC4A2A" cx="64.3333333" cy="64.3333333" r="5.83333333"></circle>
            <circle id="Oval" fill="#FC4A2A" cx="64.3333333" cy="15.3333333" r="5.83333333"></circle>
            <circle id="Oval" fill="#FFFFFF" cx="13.3333333" cy="64.3333333" r="6.83333333"></circle>
            <circle id="Oval" fill="#FFFFFF" cx="13.3333333" cy="15.3333333" r="6.83333333"></circle>
            <circle id="Oval" fill="#FFFFFF" cx="28.3333333" cy="49" r="6.83333333"></circle>
            <circle id="Oval" fill="#FFFFFF" cx="28.3333333" cy="31" r="6.83333333"></circle>
        </g>
    </g>
</svg>